<svg t="1753774405761" class="icon" viewBox="0 0 1024 1024" version="1.1" xmlns="http://www.w3.org/2000/svg" p-id="1360"
     width="200" height="200">
    <path d="M891.54 425.07c26.74 227.1-42.46 296.82-333.78 331.12-68.15 8.02-100.93 8.92-148.16 7.29-65.92-2.25-58.89 105.62-125.57 85.16-69.09-34.95-111.98-216.05-126.24-337.2-26.74-227.1 41.03-295.4 332.36-329.7 291.32-34.3 374.67 16.23 401.41 243.31h-0.01v0.01z"
          fill="#00B8FF" p-id="1361"></path>
    <path d="M333.64 842.59c-2.63 0-5.28-0.83-7.54-2.54-5.5-4.17-6.58-12.01-2.41-17.51 4.28-5.64 8.28-12.19 12.52-19.13 14.65-23.95 32.88-53.76 71.79-52.43 45.49 1.56 77.41 0.89 146.27-7.22 166.92-19.65 251.95-50.56 293.5-106.68 4.11-5.55 11.94-6.72 17.48-2.61 5.55 4.11 6.72 11.94 2.61 17.48-24.25 32.76-61.29 57.74-113.24 76.37-48.21 17.29-110.95 30.08-197.43 40.27-70.48 8.3-103.25 8.98-150.05 7.37-22.7-0.77-33.88 14.78-49.6 40.48-4.37 7.15-8.9 14.55-13.92 21.18a12.488 12.488 0 0 1-9.97 4.95z"
          p-id="1362"></path>
    <path d="M464.805093 422.709722a137.13 61.23 85.08 1 0 122.008787-10.502746 137.13 61.23 85.08 1 0-122.008787 10.502746Z"
          fill="#FFFFFF" p-id="1363"></path>
    <path d="M514.02 280.87c-5.23 0.45-10.18 2.36-14.78 5.55-14.24 24.43-21.52 65.93-17.55 112.14 6.17 71.77 37.15 127.71 69.19 124.95 11.45-0.98 21.48-9.33 29.37-22.92 6.72-24.4 9.37-55.22 6.52-88.34-6.49-75.46-39.06-134.28-72.75-131.38z"
          p-id="1364"></path>
    <path d="M671.56889 404.907788a121.43 54.22 85.08 1 0 108.040444-9.300325 121.43 54.22 85.08 1 0-108.040444 9.300325Z"
          fill="#FFFFFF" p-id="1365"></path>
    <path d="M715.15 279.33c-4.63 0.4-9.01 2.09-13.09 4.91-12.61 21.64-19.06 58.38-15.54 99.3 5.47 63.55 32.9 113.08 61.27 110.64 10.14-0.87 19.02-8.26 26-20.3 5.95-21.61 8.3-48.9 5.77-78.22-5.75-66.82-34.59-118.9-64.42-116.33z"
          p-id="1366"></path>
    <path d="M609.545615 603.822646a27.92 48.37 79.06 1 0 94.981892-18.359408 27.92 48.37 79.06 1 0-94.981892 18.359408Z"
          p-id="1367"></path>
    <path d="M391.54 318.78c-4.91 0-9.56-2.91-11.55-7.72-2.64-6.37 0.38-13.67 6.74-16.32 0.54-0.23 31.91-13.77 48.84-43.59 3.41-6 11.04-8.11 17.04-4.7 6 3.41 8.11 11.04 4.7 17.04-21.34 37.58-59.38 53.66-60.98 54.33-1.56 0.65-3.18 0.95-4.78 0.95zM794.27 285.42c-0.86 0-1.74-0.09-2.61-0.28-35.58-7.57-58.16-34.01-59.1-35.13-4.44-5.28-3.77-13.17 1.52-17.61 5.27-4.44 13.14-3.77 17.59 1.49 0.26 0.3 18.29 21.08 45.2 26.81 6.75 1.44 11.06 8.08 9.62 14.83-1.25 5.88-6.44 9.9-12.21 9.9z"
          p-id="1368"></path>
</svg>
